<?xml version="1.0" standalone="no"?>
<!DOCTYPE svg PUBLIC "-//W3C//DTD SVG 20010904//EN"
 "http://www.w3.org/TR/2001/REC-SVG-20010904/DTD/svg10.dtd">
<svg version="1.0" xmlns="http://www.w3.org/2000/svg"
 width="500.000000pt" height="500.000000pt" viewBox="0 0 500.000000 500.000000"
 preserveAspectRatio="xMidYMid meet">
<metadata>
Created by potrace 1.14, written by Peter Selinger 2001-2017
</metadata>
<g transform="translate(0.000000,500.000000) scale(0.100000,-0.100000)"
fill="#000000" stroke="none">
<path d="M0 2500 l0 -2500 2500 0 2500 0 0 2500 0 2500 -2500 0 -2500 0 0
-2500z m1395 1673 c66 -22 137 -93 158 -159 9 -27 21 -87 27 -134 6 -47 13
-97 16 -112 l6 -28 1103 0 c756 0 1113 -3 1132 -11 34 -13 80 -55 99 -91 31
-60 21 -106 -132 -549 -80 -233 -154 -440 -164 -460 -11 -20 -36 -51 -56 -69
-81 -71 -37 -65 -1072 -141 -1156 -84 -1069 -76 -1093 -100 -28 -28 -25 -73 7
-98 27 -21 30 -21 1051 -21 1008 0 1025 0 1085 -21 34 -11 81 -34 105 -50 73
-51 153 -173 153 -236 0 -14 -13 -37 -29 -54 -51 -51 -103 -33 -145 49 -27 53
-66 96 -111 120 -27 15 -127 17 -1080 22 -1162 6 -1084 1 -1154 71 -48 48 -71
103 -71 174 0 76 25 130 79 176 49 43 89 56 199 65 69 6 82 10 78 23 -2 9 -46
333 -97 721 -111 844 -82 760 -268 760 -110 0 -122 2 -146 23 -21 17 -27 32
-27 62 0 30 6 45 27 62 24 21 35 23 149 23 88 0 136 -5 171 -17z m680 -2247
c61 -28 116 -87 140 -149 21 -57 17 -165 -9 -218 -65 -135 -233 -192 -369
-126 -98 49 -151 135 -150 247 0 78 18 123 70 180 53 60 121 90 203 90 47 0
79 -7 115 -24z m1312 -6 c100 -50 147 -126 147 -240 1 -62 -4 -84 -26 -126
-50 -95 -139 -148 -248 -147 -78 1 -127 20 -185 74 -63 58 -89 125 -83 216 4
58 11 82 34 119 79 128 228 170 361 104z m-1760 -946 c29 -18 20 -49 -11 -39
-11 4 -40 10 -63 12 -35 4 -46 1 -67 -21 -21 -20 -26 -35 -26 -73 0 -60 20
-90 65 -99 57 -10 85 1 85 36 0 23 -5 30 -19 30 -30 0 -51 11 -51 27 0 11 12
13 53 11 l52 -3 3 -60 c3 -47 0 -62 -14 -72 -24 -18 -129 -16 -164 2 -70 36
-87 157 -32 224 37 47 135 59 189 25z m714 0 c40 -20 62 -76 57 -142 -4 -48
-10 -60 -41 -89 -33 -29 -43 -33 -93 -33 -50 0 -59 3 -89 33 -98 98 -20 273
110 250 17 -3 42 -11 56 -19z m397 -1 c13 -8 21 -20 19 -26 -4 -12 -14 -12
-87 -1 -49 8 -80 -18 -87 -73 -12 -89 39 -137 119 -114 53 16 75 0 39 -30 -29
-24 -109 -26 -151 -4 -73 38 -87 161 -27 231 37 43 121 52 175 17z m835 5 c24
-12 17 -44 -8 -40 -73 13 -102 13 -114 -2 -25 -30 -9 -50 56 -67 79 -20 93
-32 93 -79 0 -30 -6 -43 -27 -60 -24 -19 -38 -21 -97 -18 -53 3 -71 8 -82 23
-20 27 -3 40 37 26 67 -23 119 -10 119 31 0 12 -13 20 -42 28 -96 24 -118 42
-118 93 0 68 105 105 183 65z m-1609 1 c50 -23 57 -102 12 -137 l-23 -16 29
-42 c35 -52 37 -77 6 -72 -16 2 -32 20 -51 56 -26 47 -32 52 -62 52 -34 0 -34
0 -37 -52 -3 -46 -6 -53 -25 -56 -23 -3 -23 -3 -23 131 0 73 3 137 7 140 11
11 140 8 167 -4z m971 -129 c0 -132 0 -135 -22 -138 -23 -3 -23 -3 -23 138 0
141 0 141 23 138 22 -3 22 -6 22 -138z m330 120 c0 -12 -15 -16 -67 -18 l-68
-3 0 -39 0 -40 66 0 c57 0 65 -2 62 -17 -3 -15 -16 -19 -66 -21 l-62 -3 0 -39
0 -39 68 -3 c52 -2 67 -6 67 -18 0 -12 -17 -15 -90 -15 l-90 0 -3 124 c-1 69
0 131 3 138 7 21 180 14 180 -7z"/>
<path d="M1625 3538 c3 -18 34 -248 69 -511 34 -262 66 -480 70 -484 9 -9
1599 105 1648 118 20 5 46 17 57 27 15 12 65 145 166 437 80 231 145 426 145
432 0 10 -221 13 -1080 13 l-1081 0 6 -32z m613 -174 c22 -25 22 -29 22 -290
l0 -266 -29 -29 c-36 -36 -70 -37 -110 -3 l-31 26 0 272 c0 270 0 273 23 293
43 40 87 39 125 -3z m449 16 c22 -13 34 -29 38 -52 3 -18 5 -145 3 -281 l-3
-249 -28 -24 c-36 -31 -68 -30 -106 2 l-31 26 0 271 c1 290 2 296 51 316 34
14 40 13 76 -9z m458 8 c51 -23 55 -46 55 -315 0 -229 -2 -250 -20 -280 -11
-18 -31 -35 -45 -39 -31 -8 -82 12 -95 37 -6 10 -10 134 -10 286 0 281 1 287
45 311 26 15 38 15 70 0z"/>
<path d="M1897 1760 c-32 -26 -51 -79 -38 -111 43 -112 201 -87 201 32 0 83
-98 130 -163 79z"/>
<path d="M3207 1769 c-23 -14 -47 -62 -47 -97 0 -38 32 -78 74 -92 105 -34
180 103 94 175 -31 27 -88 33 -121 14z"/>
<path d="M2211 924 c-31 -39 -29 -117 4 -149 69 -70 159 17 125 119 -20 62
-91 78 -129 30z"/>
<path d="M1840 905 l0 -45 44 0 c27 0 51 6 60 16 36 36 6 74 -60 74 l-44 0 0
-45z"/>
</g>
</svg>
